<svg xmlns="http://www.w3.org/2000/svg" width="1200" height="700"><rect width="1200" height="700" fill="#f8fafc"/><text x="55" y="65" font-family="Arial" font-size="32" font-weight="700">E-commerce Funnel Analysis</text><text x="55" y="98" font-family="Arial" font-size="16" fill="#64748b">12,000 sessions • acquisition, device and conversion</text><g font-family="Arial"><rect x="55" y="125" width="250" height="105" rx="12" fill="white" stroke="#e2e8f0"/><text x="73" y="155" fill="#64748b">Sessions</text><text x="73" y="198" font-size="28" font-weight="700">12,000</text><rect x="325" y="125" width="250" height="105" rx="12" fill="white" stroke="#e2e8f0"/><text x="343" y="155" fill="#64748b">Product views</text><text x="343" y="198" font-size="28" font-weight="700">8,581</text><rect x="595" y="125" width="250" height="105" rx="12" fill="white" stroke="#e2e8f0"/><text x="613" y="155" fill="#64748b">Purchases</text><text x="613" y="198" font-size="28" font-weight="700">786</text><rect x="865" y="125" width="250" height="105" rx="12" fill="white" stroke="#e2e8f0"/><text x="883" y="155" fill="#64748b">Revenue</text><text x="883" y="198" font-size="28" font-weight="700">£43,528.56</text><text x="55" y="275" font-size="20" font-weight="700">Funnel conversion</text><text x="55" y="325">Product view rate</text><text x="300" y="325" font-weight="700">71.51%</text><text x="55" y="375">Add-to-cart rate</text><text x="300" y="375" font-weight="700">18.72%</text><text x="55" y="425">Checkout rate</text><text x="300" y="425" font-weight="700">10.65%</text><text x="55" y="475">Purchase rate</text><text x="300" y="475" font-weight="700">6.55%</text><text x="55" y="535" font-size="20" font-weight="700">Purchase rate by source</text><text x="55" y="570">Organic 6.91% • Email 6.89% • Social 6.69%</text><text x="55" y="600">Referral 6.21% • Paid Search 6.00%</text><rect x="520" y="285" width="595" height="280" rx="12" fill="white" stroke="#e2e8f0"/><text x="545" y="325" font-size="19" font-weight="700">Revenue and drop-off</text><text x="545" y="375">12,000 sessions → 786 purchases</text><text x="545" y="420">Overall session-to-purchase rate: 6.55%</text><text x="545" y="470">Total purchase revenue: £43,528.56</text><text x="545" y="525">Synthetic dataset used for portfolio analysis.</text><text x="55" y="650" font-size="13" fill="#94a3b8">Synthetic portfolio dataset — illustrative analysis</text></g></svg>